<?xml version="1.0" encoding="UTF-8"?>
<svg xmlns="http://www.w3.org/2000/svg" xmlns:xlink="http://www.w3.org/1999/xlink" width="308.7612359841165" height="304.915625" viewBox="0 0 5000 3500">
<defs>
<clipPath id="clip-0">
<path clip-rule="nonzero" d="M 1282 1108 L 3526 1108 L 3526 2392 L 1282 2392 Z M 1282 1108 "/>
</clipPath>
<clipPath id="clip-1">
<path clip-rule="nonzero" d="M 1954.488281 1455.039062 C 1956.148438 1448.539062 1959.320312 1440.460938 1964.238281 1440.460938 C 1969.070312 1440.460938 1970.738281 1448.539062 1972.320312 1455.039062 L 2033.039062 1621.71875 C 1989.359375 1612.449219 1945.140625 1605.160156 1900.039062 1600.640625 Z M 3388.578125 2002.480469 C 3371.21875 2009.210938 3354.03125 2015.320312 3336.980469 2020.859375 C 3310.75 2029.421875 3289.429688 2038.21875 3268.898438 2047.019531 C 3250.589844 2054.871094 3232.289062 2062.238281 3214.058594 2068.96875 C 3106.738281 2109.160156 3000.21875 2131.191406 2891.238281 2131.191406 C 2848.441406 2131.191406 2806.121094 2128.019531 2764.191406 2122.238281 C 2749.128906 2120.328125 2734.070312 2117.878906 2719.089844 2115.179688 C 2605.671875 2094.808594 2495.421875 2056.691406 2387.558594 2012.21875 C 2319.390625 1984.089844 2252.179688 1953.5 2185.609375 1923.140625 C 2142.890625 1903.640625 2099.851562 1884.058594 2056.5 1865.039062 C 2016.789062 1847.679688 1976.761719 1830.71875 1936.339844 1814.871094 C 1973.269531 1830.570312 2009.730469 1847.371094 2045.878906 1865.039062 L 1811.910156 1865.039062 C 1805.410156 1865.039062 1803.738281 1860.210938 1805.410156 1853.710938 L 1861.839844 1702.71875 C 1940.070312 1722.539062 2016.070312 1749.800781 2090.890625 1780.46875 C 2174.429688 1814.710938 2256.460938 1853.230469 2338.261719 1890.25 C 2607.96875 2012.140625 2875.46875 2117.960938 3188.21875 2004.058594 C 3194.929688 2001.609375 3201.660156 1999.019531 3208.410156 1996.371094 C 3210.160156 1995.679688 3211.898438 1994.980469 3213.648438 1994.28125 C 3219.039062 1992.121094 3224.429688 1989.898438 3229.851562 1987.621094 C 3231.390625 1986.960938 3232.921875 1986.320312 3234.46875 1985.660156 C 3248.460938 1979.660156 3262.539062 1973.210938 3276.71875 1966.300781 C 3277.800781 1965.78125 3278.878906 1965.230469 3279.960938 1964.699219 C 3286.070312 1961.699219 3292.199219 1958.601562 3298.351562 1955.421875 C 3299.660156 1954.738281 3300.96875 1954.070312 3302.28125 1953.390625 C 3309.621094 1949.550781 3316.988281 1945.628906 3324.378906 1941.53125 C 3339.601562 1933.128906 3354.820312 1924.25 3370.191406 1914.738281 C 3420.679688 1883.671875 3472.441406 1846.660156 3525.621094 1802.828125 C 3467.519531 1835.238281 3410.929688 1860.128906 3355.53125 1878.601562 C 3317.25 1797.199219 3244.648438 1720.320312 3124.648438 1630.039062 L 3079.238281 1596.039062 C 2944.738281 1493.960938 2907.488281 1437.210938 2907.488281 1362.628906 C 2907.488281 1265.460938 2980.398438 1195.710938 3100.320312 1195.710938 C 3205.648438 1195.710938 3252.648438 1244.378906 3276.988281 1275.128906 C 3310.988281 1317.289062 3319.070312 1367.539062 3319.070312 1382.121094 C 3319.070312 1401.539062 3323.988281 1411.289062 3335.320312 1411.289062 C 3348.238281 1411.289062 3353.148438 1398.289062 3353.148438 1362.628906 C 3353.148438 1236.289062 3359.570312 1189.289062 3359.570312 1168.210938 C 3359.570312 1156.871094 3351.488281 1151.960938 3336.910156 1148.710938 C 3294.820312 1137.378906 3226.738281 1121.210938 3121.398438 1121.210938 C 2896.070312 1121.210938 2746.988281 1249.210938 2746.988281 1427.460938 C 2746.988281 1558.789062 2808.570312 1672.210938 2986.820312 1811.539062 L 3061.410156 1869.960938 C 3084.550781 1888.109375 3104.519531 1905.378906 3121.558594 1921.871094 C 2819.988281 1934.46875 2547.019531 1786.738281 2256.378906 1685.679688 C 2160.800781 1446.480469 2067.351562 1210.769531 2045.238281 1160.039062 C 2029.070312 1122.789062 2019.320312 1108.210938 2004.738281 1108.210938 C 1988.570312 1108.210938 1978.820312 1126.039062 1959.320312 1173.039062 L 1790.578125 1595.171875 C 1633.019531 1595.640625 1465.390625 1632.820312 1282.300781 1731.410156 C 1452.949219 1666.660156 1609.011719 1658.261719 1756.269531 1681.078125 L 1552.570312 2190.789062 C 1520.160156 2271.871094 1489.410156 2326.960938 1414.820312 2336.710938 C 1401.828125 2338.289062 1379.160156 2339.878906 1364.570312 2339.878906 C 1351.660156 2339.878906 1345.160156 2343.128906 1345.160156 2352.871094 C 1345.160156 2365.871094 1354.828125 2369.121094 1375.910156 2369.121094 C 1460.238281 2369.121094 1549.320312 2364.210938 1567.160156 2364.210938 C 1617.410156 2364.210938 1687.070312 2369.121094 1738.988281 2369.121094 C 1756.820312 2369.121094 1766.488281 2365.871094 1766.488281 2352.871094 C 1766.488281 2343.128906 1761.660156 2339.878906 1742.160156 2339.878906 L 1717.910156 2339.878906 C 1667.660156 2339.878906 1653.070312 2318.871094 1653.070312 2289.710938 C 1653.070312 2270.210938 1661.160156 2231.289062 1677.410156 2190.789062 L 1764.910156 1959.039062 C 1768.160156 1949.371094 1771.398438 1946.121094 1779.488281 1946.121094 L 2140.898438 1946.121094 C 2148.988281 1946.121094 2153.820312 1949.371094 2157.070312 1957.460938 L 2182.359375 2024.429688 L 2286.738281 2301.039062 C 2294.820312 2320.460938 2283.488281 2335.039062 2272.160156 2338.289062 C 2255.910156 2339.878906 2249.488281 2343.128906 2249.488281 2352.871094 C 2249.488281 2364.210938 2268.910156 2364.210938 2298.070312 2365.871094 C 2427.738281 2369.121094 2546.070312 2369.121094 2604.398438 2369.121094 C 2664.320312 2369.121094 2678.910156 2365.871094 2678.910156 2352.871094 C 2678.910156 2341.539062 2670.820312 2339.878906 2657.898438 2339.878906 C 2638.410156 2339.878906 2614.070312 2338.289062 2589.820312 2333.460938 C 2555.820312 2325.289062 2509.058594 2302.78125 2447.789062 2158.21875 C 2447.550781 2157.738281 2447.390625 2157.269531 2447.160156 2156.789062 C 2434.480469 2126.589844 2419.421875 2090.210938 2402.769531 2049.398438 C 2505.648438 2100.039062 2609.160156 2143.789062 2716.238281 2169.390625 C 2738.429688 2174.699219 2760.78125 2179.21875 2783.289062 2182.871094 C 2920.328125 2205.058594 3064.101562 2194.601562 3220.238281 2128.730469 L 3220.238281 2129.210938 C 3220.238281 2161.308594 3210.328125 2195.148438 3190.199219 2225.03125 C 3156.589844 2275.121094 3094.460938 2313.960938 3003.070312 2313.960938 C 2948.78125 2313.960938 2895.988281 2301.199219 2853.269531 2270.609375 C 2825.929688 2268.78125 2798.269531 2265.609375 2770.609375 2261.089844 C 2751.820312 2258 2732.558594 2254.359375 2713.460938 2250.078125 C 2713.148438 2264.898438 2712.988281 2279.800781 2712.988281 2294.539062 C 2712.988281 2330.210938 2717.820312 2338.289062 2743.738281 2349.628906 C 2813.488281 2380.460938 2886.398438 2391.789062 2980.398438 2391.789062 C 3066.238281 2391.789062 3156.988281 2377.210938 3238.070312 2325.289062 C 3317.011719 2273.78125 3358.859375 2205.929688 3377.640625 2138.320312 C 3386.679688 2105.988281 3390.398438 2073.808594 3390.398438 2043.371094 C 3390.398438 2041.390625 3390.398438 2039.410156 3390.328125 2037.429688 C 3434.390625 2008.738281 3479.410156 1975.609375 3525.621094 1937.558594 C 3479.011719 1963.558594 3433.359375 1985.039062 3388.578125 2002.480469 Z M 3388.578125 2002.480469 "/>
</clipPath>
<clipPath id="clip-2">
<path clip-rule="nonzero" d="M 1954.488281 1455.039062 C 1956.148438 1448.539062 1959.320312 1440.460938 1964.238281 1440.460938 C 1969.070312 1440.460938 1970.738281 1448.539062 1972.320312 1455.039062 L 2033.039062 1621.71875 C 1989.359375 1612.449219 1945.140625 1605.160156 1900.039062 1600.640625 Z M 3388.578125 2002.480469 C 3371.21875 2009.210938 3354.03125 2015.320312 3336.980469 2020.859375 C 3310.75 2029.421875 3289.429688 2038.21875 3268.898438 2047.019531 C 3250.589844 2054.871094 3232.289062 2062.238281 3214.058594 2068.96875 C 3106.738281 2109.160156 3000.21875 2131.191406 2891.238281 2131.191406 C 2848.441406 2131.191406 2806.121094 2128.019531 2764.191406 2122.238281 C 2749.128906 2120.328125 2734.070312 2117.878906 2719.089844 2115.179688 C 2605.671875 2094.808594 2495.421875 2056.691406 2387.558594 2012.21875 C 2319.390625 1984.089844 2252.179688 1953.5 2185.609375 1923.140625 C 2142.890625 1903.640625 2099.851562 1884.058594 2056.5 1865.039062 C 2016.789062 1847.679688 1976.761719 1830.71875 1936.339844 1814.871094 C 1973.269531 1830.570312 2009.730469 1847.371094 2045.878906 1865.039062 L 1811.910156 1865.039062 C 1805.410156 1865.039062 1803.738281 1860.210938 1805.410156 1853.710938 L 1861.839844 1702.71875 C 1940.070312 1722.539062 2016.070312 1749.800781 2090.890625 1780.46875 C 2174.429688 1814.710938 2256.460938 1853.230469 2338.261719 1890.25 C 2607.96875 2012.140625 2875.46875 2117.960938 3188.21875 2004.058594 C 3194.929688 2001.609375 3201.660156 1999.019531 3208.410156 1996.371094 C 3210.160156 1995.679688 3211.898438 1994.980469 3213.648438 1994.28125 C 3219.039062 1992.121094 3224.429688 1989.898438 3229.851562 1987.621094 C 3231.390625 1986.960938 3232.921875 1986.320312 3234.46875 1985.660156 C 3248.460938 1979.660156 3262.539062 1973.210938 3276.71875 1966.300781 C 3277.800781 1965.78125 3278.878906 1965.230469 3279.960938 1964.699219 C 3286.070312 1961.699219 3292.199219 1958.601562 3298.351562 1955.421875 C 3299.660156 1954.738281 3300.96875 1954.070312 3302.28125 1953.390625 C 3309.621094 1949.550781 3316.988281 1945.628906 3324.378906 1941.53125 C 3339.601562 1933.128906 3354.820312 1924.25 3370.191406 1914.738281 C 3420.679688 1883.671875 3472.441406 1846.660156 3525.621094 1802.828125 C 3467.519531 1835.238281 3410.929688 1860.128906 3355.53125 1878.601562 C 3317.25 1797.199219 3244.648438 1720.320312 3124.648438 1630.039062 L 3079.238281 1596.039062 C 2944.738281 1493.960938 2907.488281 1437.210938 2907.488281 1362.628906 C 2907.488281 1265.460938 2980.398438 1195.710938 3100.320312 1195.710938 C 3205.648438 1195.710938 3252.648438 1244.378906 3276.988281 1275.128906 C 3310.988281 1317.289062 3319.070312 1367.539062 3319.070312 1382.121094 C 3319.070312 1401.539062 3323.988281 1411.289062 3335.320312 1411.289062 C 3348.238281 1411.289062 3353.148438 1398.289062 3353.148438 1362.628906 C 3353.148438 1236.289062 3359.570312 1189.289062 3359.570312 1168.210938 C 3359.570312 1156.871094 3351.488281 1151.960938 3336.910156 1148.710938 C 3294.820312 1137.378906 3226.738281 1121.210938 3121.398438 1121.210938 C 2896.070312 1121.210938 2746.988281 1249.210938 2746.988281 1427.460938 C 2746.988281 1558.789062 2808.570312 1672.210938 2986.820312 1811.539062 L 3061.410156 1869.960938 C 3084.550781 1888.109375 3104.519531 1905.378906 3121.558594 1921.871094 C 2819.988281 1934.46875 2547.019531 1786.738281 2256.378906 1685.679688 C 2160.800781 1446.480469 2067.351562 1210.769531 2045.238281 1160.039062 C 2029.070312 1122.789062 2019.320312 1108.210938 2004.738281 1108.210938 C 1988.570312 1108.210938 1978.820312 1126.039062 1959.320312 1173.039062 L 1790.578125 1595.171875 C 1633.019531 1595.640625 1465.390625 1632.820312 1282.300781 1731.410156 C 1452.949219 1666.660156 1609.011719 1658.261719 1756.269531 1681.078125 L 1552.570312 2190.789062 C 1520.160156 2271.871094 1489.410156 2326.960938 1414.820312 2336.710938 C 1401.828125 2338.289062 1379.160156 2339.878906 1364.570312 2339.878906 C 1351.660156 2339.878906 1345.160156 2343.128906 1345.160156 2352.871094 C 1345.160156 2365.871094 1354.828125 2369.121094 1375.910156 2369.121094 C 1460.238281 2369.121094 1549.320312 2364.210938 1567.160156 2364.210938 C 1617.410156 2364.210938 1687.070312 2369.121094 1738.988281 2369.121094 C 1756.820312 2369.121094 1766.488281 2365.871094 1766.488281 2352.871094 C 1766.488281 2343.128906 1761.660156 2339.878906 1742.160156 2339.878906 L 1717.910156 2339.878906 C 1667.660156 2339.878906 1653.070312 2318.871094 1653.070312 2289.710938 C 1653.070312 2270.210938 1661.160156 2231.289062 1677.410156 2190.789062 L 1764.910156 1959.039062 C 1768.160156 1949.371094 1771.398438 1946.121094 1779.488281 1946.121094 L 2140.898438 1946.121094 C 2148.988281 1946.121094 2153.820312 1949.371094 2157.070312 1957.460938 L 2182.359375 2024.429688 L 2286.738281 2301.039062 C 2294.820312 2320.460938 2283.488281 2335.039062 2272.160156 2338.289062 C 2255.910156 2339.878906 2249.488281 2343.128906 2249.488281 2352.871094 C 2249.488281 2364.210938 2268.910156 2364.210938 2298.070312 2365.871094 C 2427.738281 2369.121094 2546.070312 2369.121094 2604.398438 2369.121094 C 2664.320312 2369.121094 2678.910156 2365.871094 2678.910156 2352.871094 C 2678.910156 2341.539062 2670.820312 2339.878906 2657.898438 2339.878906 C 2638.410156 2339.878906 2614.070312 2338.289062 2589.820312 2333.460938 C 2555.820312 2325.289062 2509.058594 2302.78125 2447.789062 2158.21875 C 2447.550781 2157.738281 2447.390625 2157.269531 2447.160156 2156.789062 C 2434.480469 2126.589844 2419.421875 2090.210938 2402.769531 2049.398438 C 2505.648438 2100.039062 2609.160156 2143.789062 2716.238281 2169.390625 C 2738.429688 2174.699219 2760.78125 2179.21875 2783.289062 2182.871094 C 2920.328125 2205.058594 3064.101562 2194.601562 3220.238281 2128.730469 L 3220.238281 2129.210938 C 3220.238281 2161.308594 3210.328125 2195.148438 3190.199219 2225.03125 C 3156.589844 2275.121094 3094.460938 2313.960938 3003.070312 2313.960938 C 2948.78125 2313.960938 2895.988281 2301.199219 2853.269531 2270.609375 C 2825.929688 2268.78125 2798.269531 2265.609375 2770.609375 2261.089844 C 2751.820312 2258 2732.558594 2254.359375 2713.460938 2250.078125 C 2713.148438 2264.898438 2712.988281 2279.800781 2712.988281 2294.539062 C 2712.988281 2330.210938 2717.820312 2338.289062 2743.738281 2349.628906 C 2813.488281 2380.460938 2886.398438 2391.789062 2980.398438 2391.789062 C 3066.238281 2391.789062 3156.988281 2377.210938 3238.070312 2325.289062 C 3317.011719 2273.78125 3358.859375 2205.929688 3377.640625 2138.320312 C 3386.679688 2105.988281 3390.398438 2073.808594 3390.398438 2043.371094 C 3390.398438 2041.390625 3390.398438 2039.410156 3390.328125 2037.429688 C 3434.390625 2008.738281 3479.410156 1975.609375 3525.621094 1937.558594 C 3479.011719 1963.558594 3433.359375 1985.039062 3388.578125 2002.480469 "/>
</clipPath>
<linearGradient id="linear-pattern-0" gradientUnits="userSpaceOnUse" x1="0" y1="0" x2="1.000004" y2="0" gradientTransform="matrix(2243.31, 0, 0, 2243.31, 1282.3, 1750)">
<stop offset="0" stop-color="rgb(58.111572%, 45.153809%, 15.913391%)" stop-opacity="1"/>
<stop offset="0.00390625" stop-color="rgb(58.235168%, 45.251465%, 16.07666%)" stop-opacity="1"/>
<stop offset="0.0078125" stop-color="rgb(58.357239%, 45.349121%, 16.239929%)" stop-opacity="1"/>
<stop offset="0.0117188" stop-color="rgb(58.477783%, 45.565796%, 16.368103%)" stop-opacity="1"/>
<stop offset="0.015625" stop-color="rgb(58.598328%, 45.782471%, 16.497803%)" stop-opacity="1"/>
<stop offset="0.0195312" stop-color="rgb(58.726501%, 45.838928%, 16.612244%)" stop-opacity="1"/>
<stop offset="0.0234375" stop-color="rgb(58.853149%, 45.89386%, 16.725159%)" stop-opacity="1"/>
<stop offset="0.03125" stop-color="rgb(58.992004%, 45.956421%, 16.801453%)" stop-opacity="1"/>
<stop offset="0.0351562" stop-color="rgb(59.25293%, 46.237183%, 16.954041%)" stop-opacity="1"/>
<stop offset="0.0390625" stop-color="rgb(59.373474%, 46.456909%, 17.03186%)" stop-opacity="1"/>
<stop offset="0.0429688" stop-color="rgb(59.510803%, 46.47522%, 17.115784%)" stop-opacity="1"/>
<stop offset="0.046875" stop-color="rgb(59.649658%, 46.495056%, 17.198181%)" stop-opacity="1"/>
<stop offset="0.0507812" stop-color="rgb(59.777832%, 46.716309%, 17.347717%)" stop-opacity="1"/>
<stop offset="0.0546875" stop-color="rgb(59.906006%, 46.936035%, 17.497253%)" stop-opacity="1"/>
<stop offset="0.0585938" stop-color="rgb(60.070801%, 47.076416%, 17.642212%)" stop-opacity="1"/>
<stop offset="0.0625" stop-color="rgb(60.232544%, 47.213745%, 17.785645%)" stop-opacity="1"/>
<stop offset="0.0664062" stop-color="rgb(60.391235%, 47.360229%, 17.895508%)" stop-opacity="1"/>
<stop offset="0.0703125" stop-color="rgb(60.549927%, 47.50824%, 18.003845%)" stop-opacity="1"/>
<stop offset="0.078125" stop-color="rgb(60.620117%, 47.566223%, 18.026733%)" stop-opacity="1"/>
<stop offset="0.0820312" stop-color="rgb(60.925293%, 47.862244%, 18.182373%)" stop-opacity="1"/>
<stop offset="0.0859375" stop-color="rgb(61.158752%, 48.101807%, 18.315125%)" stop-opacity="1"/>
<stop offset="0.09375" stop-color="rgb(61.195374%, 48.106384%, 18.412781%)" stop-opacity="1"/>
<stop offset="0.0976562" stop-color="rgb(61.354065%, 48.336792%, 18.676758%)" stop-opacity="1"/>
<stop offset="0.101562" stop-color="rgb(61.477661%, 48.561096%, 18.844604%)" stop-opacity="1"/>
<stop offset="0.105469" stop-color="rgb(61.637878%, 48.667908%, 18.90564%)" stop-opacity="1"/>
<stop offset="0.109375" stop-color="rgb(61.798096%, 48.774719%, 18.968201%)" stop-opacity="1"/>
<stop offset="0.117188" stop-color="rgb(61.961365%, 48.881531%, 19.052124%)" stop-opacity="1"/>
<stop offset="0.121094" stop-color="rgb(62.199402%, 49.124146%, 19.277954%)" stop-opacity="1"/>
<stop offset="0.125" stop-color="rgb(62.27417%, 49.261475%, 19.419861%)" stop-opacity="1"/>
<stop offset="0.128906" stop-color="rgb(62.399292%, 49.453735%, 19.464111%)" stop-opacity="1"/>
<stop offset="0.132812" stop-color="rgb(62.524414%, 49.645996%, 19.508362%)" stop-opacity="1"/>
<stop offset="0.136719" stop-color="rgb(62.65564%, 49.702454%, 19.599915%)" stop-opacity="1"/>
<stop offset="0.140625" stop-color="rgb(62.785339%, 49.758911%, 19.691467%)" stop-opacity="1"/>
<stop offset="0.144531" stop-color="rgb(62.930298%, 49.990845%, 19.854736%)" stop-opacity="1"/>
<stop offset="0.148438" stop-color="rgb(63.07373%, 50.222778%, 20.018005%)" stop-opacity="1"/>
<stop offset="0.152344" stop-color="rgb(63.200378%, 50.326538%, 20.176697%)" stop-opacity="1"/>
<stop offset="0.15625" stop-color="rgb(63.3255%, 50.428772%, 20.335388%)" stop-opacity="1"/>
<stop offset="0.160156" stop-color="rgb(63.522339%, 50.489807%, 20.440674%)" stop-opacity="1"/>
<stop offset="0.164062" stop-color="rgb(63.717651%, 50.547791%, 20.545959%)" stop-opacity="1"/>
<stop offset="0.167969" stop-color="rgb(63.798523%, 50.744629%, 20.639038%)" stop-opacity="1"/>
<stop offset="0.171875" stop-color="rgb(63.88092%, 50.938416%, 20.730591%)" stop-opacity="1"/>
<stop offset="0.175781" stop-color="rgb(64.160156%, 51.066589%, 20.884705%)" stop-opacity="1"/>
<stop offset="0.179688" stop-color="rgb(64.439392%, 51.194763%, 21.038818%)" stop-opacity="1"/>
<stop offset="0.183594" stop-color="rgb(64.694214%, 51.426697%, 21.202087%)" stop-opacity="1"/>
<stop offset="0.1875" stop-color="rgb(64.949036%, 51.65863%, 21.366882%)" stop-opacity="1"/>
<stop offset="0.191406" stop-color="rgb(65.101624%, 51.789856%, 21.548462%)" stop-opacity="1"/>
<stop offset="0.195312" stop-color="rgb(65.254211%, 51.91803%, 21.730042%)" stop-opacity="1"/>
<stop offset="0.199219" stop-color="rgb(65.274048%, 52.06604%, 21.762085%)" stop-opacity="1"/>
<stop offset="0.203125" stop-color="rgb(65.293884%, 52.212524%, 21.791077%)" stop-opacity="1"/>
<stop offset="0.210938" stop-color="rgb(65.45105%, 52.310181%, 21.92688%)" stop-opacity="1"/>
<stop offset="0.214844" stop-color="rgb(65.774536%, 52.606201%, 22.189331%)" stop-opacity="1"/>
<stop offset="0.21875" stop-color="rgb(65.940857%, 52.804565%, 22.319031%)" stop-opacity="1"/>
<stop offset="0.226562" stop-color="rgb(66.009521%, 52.859497%, 22.421265%)" stop-opacity="1"/>
<stop offset="0.230469" stop-color="rgb(66.545105%, 53.6026%, 23.200989%)" stop-opacity="1"/>
<stop offset="0.234375" stop-color="rgb(67.01355%, 54.295349%, 23.887634%)" stop-opacity="1"/>
<stop offset="0.238281" stop-color="rgb(67.643738%, 55.122375%, 24.662781%)" stop-opacity="1"/>
<stop offset="0.242188" stop-color="rgb(68.276978%, 55.958557%, 25.45166%)" stop-opacity="1"/>
<stop offset="0.246094" stop-color="rgb(68.785095%, 56.781006%, 26.278687%)" stop-opacity="1"/>
<stop offset="0.25" stop-color="rgb(69.294739%, 57.609558%, 27.119446%)" stop-opacity="1"/>
<stop offset="0.253906" stop-color="rgb(69.827271%, 58.451843%, 27.839661%)" stop-opacity="1"/>
<stop offset="0.257812" stop-color="rgb(70.36438%, 59.300232%, 28.569031%)" stop-opacity="1"/>
<stop offset="0.261719" stop-color="rgb(70.988464%, 60.142517%, 29.431152%)" stop-opacity="1"/>
<stop offset="0.265625" stop-color="rgb(71.615601%, 60.992432%, 30.307007%)" stop-opacity="1"/>
<stop offset="0.269531" stop-color="rgb(72.480774%, 62.117004%, 31.335449%)" stop-opacity="1"/>
<stop offset="0.273438" stop-color="rgb(73.352051%, 63.253784%, 32.385254%)" stop-opacity="1"/>
<stop offset="0.277344" stop-color="rgb(73.921204%, 63.999939%, 33.154297%)" stop-opacity="1"/>
<stop offset="0.28125" stop-color="rgb(74.491882%, 64.752197%, 33.932495%)" stop-opacity="1"/>
<stop offset="0.285156" stop-color="rgb(75.061035%, 65.705872%, 34.751892%)" stop-opacity="1"/>
<stop offset="0.289062" stop-color="rgb(75.631714%, 66.667175%, 35.583496%)" stop-opacity="1"/>
<stop offset="0.292969" stop-color="rgb(76.190186%, 67.61322%, 36.470032%)" stop-opacity="1"/>
<stop offset="0.296875" stop-color="rgb(76.750183%, 68.566895%, 37.3703%)" stop-opacity="1"/>
<stop offset="0.300781" stop-color="rgb(77.342224%, 69.422913%, 38.21106%)" stop-opacity="1"/>
<stop offset="0.304687" stop-color="rgb(77.937317%, 70.28656%, 39.0625%)" stop-opacity="1"/>
<stop offset="0.308594" stop-color="rgb(78.790283%, 71.315002%, 40.083313%)" stop-opacity="1"/>
<stop offset="0.3125" stop-color="rgb(79.649353%, 72.354126%, 41.120911%)" stop-opacity="1"/>
<stop offset="0.316406" stop-color="rgb(80.282593%, 73.266602%, 41.93573%)" stop-opacity="1"/>
<stop offset="0.320313" stop-color="rgb(80.918884%, 74.188232%, 42.76123%)" stop-opacity="1"/>
<stop offset="0.324219" stop-color="rgb(81.43158%, 74.963379%, 43.728638%)" stop-opacity="1"/>
<stop offset="0.328125" stop-color="rgb(81.944275%, 75.744629%, 44.706726%)" stop-opacity="1"/>
<stop offset="0.332031" stop-color="rgb(82.499695%, 76.809692%, 45.7901%)" stop-opacity="1"/>
<stop offset="0.335938" stop-color="rgb(83.056641%, 77.882385%, 46.888733%)" stop-opacity="1"/>
<stop offset="0.339844" stop-color="rgb(83.662415%, 78.713989%, 47.706604%)" stop-opacity="1"/>
<stop offset="0.34375" stop-color="rgb(84.27124%, 79.551697%, 48.532104%)" stop-opacity="1"/>
<stop offset="0.347656" stop-color="rgb(85.22644%, 80.761719%, 49.784851%)" stop-opacity="1"/>
<stop offset="0.351562" stop-color="rgb(86.184692%, 81.987%, 51.060486%)" stop-opacity="1"/>
<stop offset="0.355469" stop-color="rgb(86.627197%, 82.971191%, 52.008057%)" stop-opacity="1"/>
<stop offset="0.359375" stop-color="rgb(87.069702%, 83.963013%, 52.966309%)" stop-opacity="1"/>
<stop offset="0.363281" stop-color="rgb(87.67395%, 84.846497%, 53.849792%)" stop-opacity="1"/>
<stop offset="0.367188" stop-color="rgb(88.28125%, 85.734558%, 54.742432%)" stop-opacity="1"/>
<stop offset="0.371094" stop-color="rgb(88.822937%, 86.642456%, 55.618286%)" stop-opacity="1"/>
<stop offset="0.375" stop-color="rgb(89.367676%, 87.554932%, 56.504822%)" stop-opacity="1"/>
<stop offset="0.378906" stop-color="rgb(90.005493%, 88.589478%, 57.676697%)" stop-opacity="1"/>
<stop offset="0.382812" stop-color="rgb(90.646362%, 89.633179%, 58.863831%)" stop-opacity="1"/>
<stop offset="0.386719" stop-color="rgb(91.50238%, 90.760803%, 60.050964%)" stop-opacity="1"/>
<stop offset="0.390625" stop-color="rgb(92.362976%, 91.899109%, 61.256409%)" stop-opacity="1"/>
<stop offset="0.394531" stop-color="rgb(92.921448%, 92.852783%, 62.228394%)" stop-opacity="1"/>
<stop offset="0.398438" stop-color="rgb(93.482971%, 93.811035%, 63.209534%)" stop-opacity="1"/>
<stop offset="0.402344" stop-color="rgb(94.046021%, 94.784546%, 64.373779%)" stop-opacity="1"/>
<stop offset="0.40625" stop-color="rgb(94.612122%, 95.76416%, 65.551758%)" stop-opacity="1"/>
<stop offset="0.410156" stop-color="rgb(95.344543%, 96.444702%, 66.798401%)" stop-opacity="1"/>
<stop offset="0.414062" stop-color="rgb(96.078491%, 97.12677%, 68.057251%)" stop-opacity="1"/>
<stop offset="0.417969" stop-color="rgb(96.078491%, 97.108459%, 67.697144%)" stop-opacity="1"/>
<stop offset="0.421875" stop-color="rgb(96.078491%, 97.090149%, 67.338562%)" stop-opacity="1"/>
<stop offset="0.425781" stop-color="rgb(96.078491%, 97.079468%, 67.126465%)" stop-opacity="1"/>
<stop offset="0.429687" stop-color="rgb(96.078491%, 97.068787%, 66.912842%)" stop-opacity="1"/>
<stop offset="0.433594" stop-color="rgb(96.200562%, 97.091675%, 66.592407%)" stop-opacity="1"/>
<stop offset="0.4375" stop-color="rgb(96.322632%, 97.113037%, 66.271973%)" stop-opacity="1"/>
<stop offset="0.441406" stop-color="rgb(96.3974%, 97.123718%, 66.000366%)" stop-opacity="1"/>
<stop offset="0.445313" stop-color="rgb(96.470642%, 97.132874%, 65.727234%)" stop-opacity="1"/>
<stop offset="0.449219" stop-color="rgb(96.456909%, 96.942139%, 65.486145%)" stop-opacity="1"/>
<stop offset="0.453125" stop-color="rgb(96.444702%, 96.749878%, 65.24353%)" stop-opacity="1"/>
<stop offset="0.457031" stop-color="rgb(96.443176%, 96.702576%, 65.003967%)" stop-opacity="1"/>
<stop offset="0.460938" stop-color="rgb(96.440125%, 96.653748%, 64.762878%)" stop-opacity="1"/>
<stop offset="0.464844" stop-color="rgb(96.626282%, 96.551514%, 64.352417%)" stop-opacity="1"/>
<stop offset="0.46875" stop-color="rgb(96.810913%, 96.44928%, 63.941956%)" stop-opacity="1"/>
<stop offset="0.472656" stop-color="rgb(96.798706%, 96.24939%, 63.536072%)" stop-opacity="1"/>
<stop offset="0.476562" stop-color="rgb(96.786499%, 96.0495%, 63.130188%)" stop-opacity="1"/>
<stop offset="0.480469" stop-color="rgb(96.775818%, 95.898438%, 62.889099%)" stop-opacity="1"/>
<stop offset="0.484375" stop-color="rgb(96.766663%, 95.747375%, 62.644958%)" stop-opacity="1"/>
<stop offset="0.488281" stop-color="rgb(96.958923%, 95.751953%, 62.304688%)" stop-opacity="1"/>
<stop offset="0.492188" stop-color="rgb(97.151184%, 95.755005%, 61.962891%)" stop-opacity="1"/>
<stop offset="0.5" stop-color="rgb(97.145081%, 95.657349%, 61.776733%)" stop-opacity="1"/>
<stop offset="0.507812" stop-color="rgb(97.203064%, 95.481873%, 61.39679%)" stop-opacity="1"/>
<stop offset="0.511719" stop-color="rgb(97.37854%, 95.245361%, 60.835266%)" stop-opacity="1"/>
<stop offset="0.515625" stop-color="rgb(97.489929%, 95.085144%, 60.467529%)" stop-opacity="1"/>
<stop offset="0.519531" stop-color="rgb(97.489929%, 95.075989%, 60.276794%)" stop-opacity="1"/>
<stop offset="0.523438" stop-color="rgb(97.489929%, 95.066833%, 60.084534%)" stop-opacity="1"/>
<stop offset="0.527344" stop-color="rgb(97.659302%, 94.932556%, 59.83429%)" stop-opacity="1"/>
<stop offset="0.53125" stop-color="rgb(97.8302%, 94.796753%, 59.584045%)" stop-opacity="1"/>
<stop offset="0.539062" stop-color="rgb(97.831726%, 94.648743%, 59.396362%)" stop-opacity="1"/>
<stop offset="0.542969" stop-color="rgb(97.828674%, 94.451904%, 58.970642%)" stop-opacity="1"/>
<stop offset="0.546875" stop-color="rgb(97.825623%, 94.404602%, 58.734131%)" stop-opacity="1"/>
<stop offset="0.550781" stop-color="rgb(97.914124%, 94.236755%, 58.302307%)" stop-opacity="1"/>
<stop offset="0.554688" stop-color="rgb(98.002625%, 94.067383%, 57.870483%)" stop-opacity="1"/>
<stop offset="0.558594" stop-color="rgb(98.095703%, 94.085693%, 57.672119%)" stop-opacity="1"/>
<stop offset="0.5625" stop-color="rgb(98.188782%, 94.10553%, 57.470703%)" stop-opacity="1"/>
<stop offset="0.566406" stop-color="rgb(98.175049%, 93.913269%, 57.196045%)" stop-opacity="1"/>
<stop offset="0.570312" stop-color="rgb(98.161316%, 93.721008%, 56.918335%)" stop-opacity="1"/>
<stop offset="0.574219" stop-color="rgb(98.181152%, 93.710327%, 56.582642%)" stop-opacity="1"/>
<stop offset="0.578125" stop-color="rgb(98.200989%, 93.701172%, 56.245422%)" stop-opacity="1"/>
<stop offset="0.582031" stop-color="rgb(98.376465%, 93.745422%, 56.037903%)" stop-opacity="1"/>
<stop offset="0.585938" stop-color="rgb(98.548889%, 93.788147%, 55.828857%)" stop-opacity="1"/>
<stop offset="0.589844" stop-color="rgb(98.204041%, 93.209839%, 55.455017%)" stop-opacity="1"/>
<stop offset="0.59375" stop-color="rgb(97.85614%, 92.633057%, 55.084229%)" stop-opacity="1"/>
<stop offset="0.597656" stop-color="rgb(97.555542%, 92.111206%, 54.71344%)" stop-opacity="1"/>
<stop offset="0.601562" stop-color="rgb(97.254944%, 91.58783%, 54.344177%)" stop-opacity="1"/>
<stop offset="0.605469" stop-color="rgb(96.862793%, 91.110229%, 53.982544%)" stop-opacity="1"/>
<stop offset="0.609375" stop-color="rgb(96.472168%, 90.632629%, 53.622437%)" stop-opacity="1"/>
<stop offset="0.613281" stop-color="rgb(96.229553%, 90.103149%, 53.182983%)" stop-opacity="1"/>
<stop offset="0.617188" stop-color="rgb(95.985413%, 89.573669%, 52.746582%)" stop-opacity="1"/>
<stop offset="0.621094" stop-color="rgb(95.533752%, 88.967896%, 52.296448%)" stop-opacity="1"/>
<stop offset="0.625" stop-color="rgb(95.080566%, 88.366699%, 51.849365%)" stop-opacity="1"/>
<stop offset="0.628906" stop-color="rgb(94.543457%, 87.747192%, 51.516724%)" stop-opacity="1"/>
<stop offset="0.632812" stop-color="rgb(94.007874%, 87.130737%, 51.185608%)" stop-opacity="1"/>
<stop offset="0.636719" stop-color="rgb(93.762207%, 86.677551%, 50.840759%)" stop-opacity="1"/>
<stop offset="0.640625" stop-color="rgb(93.515015%, 86.227417%, 50.497437%)" stop-opacity="1"/>
<stop offset="0.644531" stop-color="rgb(93.110657%, 85.742188%, 50.19989%)" stop-opacity="1"/>
<stop offset="0.648438" stop-color="rgb(92.707825%, 85.258484%, 49.90387%)" stop-opacity="1"/>
<stop offset="0.652344" stop-color="rgb(92.498779%, 84.872437%, 49.549866%)" stop-opacity="1"/>
<stop offset="0.65625" stop-color="rgb(92.288208%, 84.483337%, 49.197388%)" stop-opacity="1"/>
<stop offset="0.660156" stop-color="rgb(91.995239%, 83.984375%, 48.86322%)" stop-opacity="1"/>
<stop offset="0.664062" stop-color="rgb(91.702271%, 83.485413%, 48.529053%)" stop-opacity="1"/>
<stop offset="0.667969" stop-color="rgb(91.407776%, 83.015442%, 48.132324%)" stop-opacity="1"/>
<stop offset="0.671875" stop-color="rgb(91.111755%, 82.545471%, 47.737122%)" stop-opacity="1"/>
<stop offset="0.675781" stop-color="rgb(90.722656%, 81.991577%, 47.529602%)" stop-opacity="1"/>
<stop offset="0.679688" stop-color="rgb(90.332031%, 81.440735%, 47.320557%)" stop-opacity="1"/>
<stop offset="0.683594" stop-color="rgb(90.12146%, 80.929565%, 46.920776%)" stop-opacity="1"/>
<stop offset="0.6875" stop-color="rgb(89.907837%, 80.419922%, 46.522522%)" stop-opacity="1"/>
<stop offset="0.691406" stop-color="rgb(89.706421%, 80.082703%, 46.156311%)" stop-opacity="1"/>
<stop offset="0.695312" stop-color="rgb(89.505005%, 79.745483%, 45.791626%)" stop-opacity="1"/>
<stop offset="0.699219" stop-color="rgb(88.825989%, 78.860474%, 45.394897%)" stop-opacity="1"/>
<stop offset="0.703125" stop-color="rgb(88.150024%, 77.980042%, 44.998169%)" stop-opacity="1"/>
<stop offset="0.707031" stop-color="rgb(87.973022%, 77.629089%, 44.671631%)" stop-opacity="1"/>
<stop offset="0.710938" stop-color="rgb(87.794495%, 77.275085%, 44.343567%)" stop-opacity="1"/>
<stop offset="0.714844" stop-color="rgb(87.535095%, 76.701355%, 44.116211%)" stop-opacity="1"/>
<stop offset="0.71875" stop-color="rgb(87.275696%, 76.12915%, 43.890381%)" stop-opacity="1"/>
<stop offset="0.722656" stop-color="rgb(86.972046%, 75.779724%, 43.556213%)" stop-opacity="1"/>
<stop offset="0.726562" stop-color="rgb(86.668396%, 75.430298%, 43.223572%)" stop-opacity="1"/>
<stop offset="0.730469" stop-color="rgb(86.239624%, 74.79248%, 42.78717%)" stop-opacity="1"/>
<stop offset="0.734375" stop-color="rgb(85.810852%, 74.156189%, 42.353821%)" stop-opacity="1"/>
<stop offset="0.738281" stop-color="rgb(85.617065%, 73.840332%, 42.196655%)" stop-opacity="1"/>
<stop offset="0.742188" stop-color="rgb(85.423279%, 73.526001%, 42.03949%)" stop-opacity="1"/>
<stop offset="0.746094" stop-color="rgb(85.075378%, 72.915649%, 41.661072%)" stop-opacity="1"/>
<stop offset="0.75" stop-color="rgb(84.725952%, 72.30835%, 41.28418%)" stop-opacity="1"/>
<stop offset="0.753906" stop-color="rgb(84.535217%, 71.995544%, 41.007996%)" stop-opacity="1"/>
<stop offset="0.757812" stop-color="rgb(84.342957%, 71.682739%, 40.733337%)" stop-opacity="1"/>
<stop offset="0.761719" stop-color="rgb(84.066772%, 71.243286%, 40.393066%)" stop-opacity="1"/>
<stop offset="0.765625" stop-color="rgb(83.790588%, 70.808411%, 40.054321%)" stop-opacity="1"/>
<stop offset="0.769531" stop-color="rgb(83.605957%, 70.487976%, 39.955139%)" stop-opacity="1"/>
<stop offset="0.773438" stop-color="rgb(83.4198%, 70.167542%, 39.854431%)" stop-opacity="1"/>
<stop offset="0.777344" stop-color="rgb(83.624268%, 70.61615%, 40.362549%)" stop-opacity="1"/>
<stop offset="0.78125" stop-color="rgb(83.827209%, 71.064758%, 40.873718%)" stop-opacity="1"/>
<stop offset="0.785156" stop-color="rgb(84.091187%, 71.520996%, 41.275024%)" stop-opacity="1"/>
<stop offset="0.789062" stop-color="rgb(84.353638%, 71.977234%, 41.679382%)" stop-opacity="1"/>
<stop offset="0.792969" stop-color="rgb(84.52301%, 72.373962%, 42.190552%)" stop-opacity="1"/>
<stop offset="0.796875" stop-color="rgb(84.690857%, 72.770691%, 42.704773%)" stop-opacity="1"/>
<stop offset="0.800781" stop-color="rgb(84.736633%, 73.141479%, 43.130493%)" stop-opacity="1"/>
<stop offset="0.804688" stop-color="rgb(84.780884%, 73.510742%, 43.556213%)" stop-opacity="1"/>
<stop offset="0.808594" stop-color="rgb(85.121155%, 74.050903%, 44.337463%)" stop-opacity="1"/>
<stop offset="0.8125" stop-color="rgb(85.462952%, 74.59259%, 45.124817%)" stop-opacity="1"/>
<stop offset="0.816406" stop-color="rgb(85.47821%, 74.960327%, 45.591736%)" stop-opacity="1"/>
<stop offset="0.820312" stop-color="rgb(85.494995%, 75.328064%, 46.060181%)" stop-opacity="1"/>
<stop offset="0.824219" stop-color="rgb(85.766602%, 75.805664%, 46.606445%)" stop-opacity="1"/>
<stop offset="0.828125" stop-color="rgb(86.038208%, 76.286316%, 47.154236%)" stop-opacity="1"/>
<stop offset="0.832031" stop-color="rgb(86.251831%, 76.754761%, 47.607422%)" stop-opacity="1"/>
<stop offset="0.835938" stop-color="rgb(86.462402%, 77.22168%, 48.060608%)" stop-opacity="1"/>
<stop offset="0.839844" stop-color="rgb(86.543274%, 77.613831%, 48.648071%)" stop-opacity="1"/>
<stop offset="0.84375" stop-color="rgb(86.625671%, 78.005981%, 49.237061%)" stop-opacity="1"/>
<stop offset="0.847656" stop-color="rgb(87.156677%, 78.611755%, 49.879456%)" stop-opacity="1"/>
<stop offset="0.851562" stop-color="rgb(87.690735%, 79.219055%, 50.527954%)" stop-opacity="1"/>
<stop offset="0.855469" stop-color="rgb(87.921143%, 79.664612%, 50.964355%)" stop-opacity="1"/>
<stop offset="0.859375" stop-color="rgb(88.150024%, 80.107117%, 51.402283%)" stop-opacity="1"/>
<stop offset="0.863281" stop-color="rgb(88.354492%, 80.628967%, 52.09198%)" stop-opacity="1"/>
<stop offset="0.867188" stop-color="rgb(88.55896%, 81.150818%, 52.784729%)" stop-opacity="1"/>
<stop offset="0.871094" stop-color="rgb(88.716125%, 81.64978%, 53.411865%)" stop-opacity="1"/>
<stop offset="0.875" stop-color="rgb(88.871765%, 82.150269%, 54.042053%)" stop-opacity="1"/>
<stop offset="0.878906" stop-color="rgb(89.178467%, 82.771301%, 54.666138%)" stop-opacity="1"/>
<stop offset="0.882812" stop-color="rgb(89.483643%, 83.392334%, 55.291748%)" stop-opacity="1"/>
<stop offset="0.886719" stop-color="rgb(89.743042%, 83.71582%, 55.804443%)" stop-opacity="1"/>
<stop offset="0.890625" stop-color="rgb(90.002441%, 84.037781%, 56.318665%)" stop-opacity="1"/>
<stop offset="0.894531" stop-color="rgb(90.222168%, 84.65271%, 56.809998%)" stop-opacity="1"/>
<stop offset="0.898438" stop-color="rgb(90.441895%, 85.269165%, 57.304382%)" stop-opacity="1"/>
<stop offset="0.902344" stop-color="rgb(90.643311%, 85.543823%, 57.896423%)" stop-opacity="1"/>
<stop offset="0.90625" stop-color="rgb(90.844727%, 85.818481%, 58.491516%)" stop-opacity="1"/>
<stop offset="0.910156" stop-color="rgb(91.056824%, 86.270142%, 59.130859%)" stop-opacity="1"/>
<stop offset="0.914062" stop-color="rgb(91.267395%, 86.724854%, 59.776306%)" stop-opacity="1"/>
<stop offset="0.917969" stop-color="rgb(91.481018%, 87.173462%, 60.244751%)" stop-opacity="1"/>
<stop offset="0.921875" stop-color="rgb(91.693115%, 87.62207%, 60.713196%)" stop-opacity="1"/>
<stop offset="0.925781" stop-color="rgb(92.027283%, 88.293457%, 61.508179%)" stop-opacity="1"/>
<stop offset="0.929688" stop-color="rgb(92.359924%, 88.96637%, 62.307739%)" stop-opacity="1"/>
<stop offset="0.933594" stop-color="rgb(92.657471%, 89.453125%, 62.995911%)" stop-opacity="1"/>
<stop offset="0.9375" stop-color="rgb(92.956543%, 89.942932%, 63.687134%)" stop-opacity="1"/>
<stop offset="0.941406" stop-color="rgb(93.173218%, 90.403748%, 64.225769%)" stop-opacity="1"/>
<stop offset="0.945312" stop-color="rgb(93.389893%, 90.866089%, 64.767456%)" stop-opacity="1"/>
<stop offset="0.949219" stop-color="rgb(93.606567%, 91.33606%, 65.446472%)" stop-opacity="1"/>
<stop offset="0.953125" stop-color="rgb(93.823242%, 91.80603%, 66.130066%)" stop-opacity="1"/>
<stop offset="0.957031" stop-color="rgb(94.042969%, 92.272949%, 66.668701%)" stop-opacity="1"/>
<stop offset="0.960938" stop-color="rgb(94.259644%, 92.739868%, 67.208862%)" stop-opacity="1"/>
<stop offset="0.964844" stop-color="rgb(94.47937%, 93.214417%, 67.86499%)" stop-opacity="1"/>
<stop offset="0.96875" stop-color="rgb(94.699097%, 93.688965%, 68.522644%)" stop-opacity="1"/>
<stop offset="0.972656" stop-color="rgb(94.827271%, 94.136047%, 69.139099%)" stop-opacity="1"/>
<stop offset="0.976562" stop-color="rgb(94.953918%, 94.58313%, 69.75708%)" stop-opacity="1"/>
<stop offset="0.980469" stop-color="rgb(95.205688%, 95.071411%, 70.36438%)" stop-opacity="1"/>
<stop offset="0.984375" stop-color="rgb(95.457458%, 95.558167%, 70.973206%)" stop-opacity="1"/>
<stop offset="0.988281" stop-color="rgb(95.722961%, 96.235657%, 71.7453%)" stop-opacity="1"/>
<stop offset="0.992188" stop-color="rgb(95.988464%, 96.916199%, 72.520447%)" stop-opacity="1"/>
<stop offset="0.996094" stop-color="rgb(96.229553%, 97.241211%, 73.377991%)" stop-opacity="1"/>
<stop offset="1" stop-color="rgb(96.470642%, 97.566223%, 74.240112%)" stop-opacity="1"/>
</linearGradient>
</defs>
<rect x="-500" y="-350" width="6000" height="4200" fill="none"/>
<g clip-path="url(#clip-0)">
<g clip-path="url(#clip-1)">
<g clip-path="url(#clip-2)">
<path fill-rule="nonzero" fill="url(#linear-pattern-0)" d="M 1282.300781 1108.210938 L 1282.300781 2391.789062 L 3525.621094 2391.789062 L 3525.621094 1108.210938 Z M 1282.300781 1108.210938 "/>
</g>
</g>
</g>
</svg>
